<?xml version="1.0" encoding="UTF-8" standalone="no"?>
<!-- Created with Inkscape (http://www.inkscape.org/) -->

<svg
   xmlns:dc="http://purl.org/dc/elements/1.1/"
   xmlns:cc="http://creativecommons.org/ns#"
   xmlns:rdf="http://www.w3.org/1999/02/22-rdf-syntax-ns#"
   xmlns:svg="http://www.w3.org/2000/svg"
   xmlns="http://www.w3.org/2000/svg"
   xmlns:sodipodi="http://sodipodi.sourceforge.net/DTD/sodipodi-0.dtd"
   xmlns:inkscape="http://www.inkscape.org/namespaces/inkscape"
   width="744.09448819"
   height="1052.3622047"
   id="svg2"
   version="1.1"
   inkscape:version="0.48.4 r9939"
   sodipodi:docname="Nowy dokument 1">
  <defs
     id="defs4" />
  <sodipodi:namedview
     id="base"
     pagecolor="#ffffff"
     bordercolor="#666666"
     borderopacity="1.0"
     inkscape:pageopacity="0.0"
     inkscape:pageshadow="2"
     inkscape:zoom="5.6"
     inkscape:cx="367.54008"
     inkscape:cy="580.44155"
     inkscape:document-units="px"
     inkscape:current-layer="layer1"
     showgrid="true"
     inkscape:window-width="1600"
     inkscape:window-height="837"
     inkscape:window-x="-8"
     inkscape:window-y="-8"
     inkscape:window-maximized="1">
    <inkscape:grid
       type="xygrid"
       id="grid2985" />
  </sodipodi:namedview>
  <metadata
     id="metadata7">
    <rdf:RDF>
      <cc:Work
         rdf:about="">
        <dc:format>image/svg+xml</dc:format>
        <dc:type
           rdf:resource="http://purl.org/dc/dcmitype/StillImage" />
        <dc:title></dc:title>
      </cc:Work>
    </rdf:RDF>
  </metadata>
  <g
     inkscape:label="Layer 1"
     inkscape:groupmode="layer"
     id="layer1">
    <path
       sodipodi:type="arc"
       style="fill:none;stroke:#000000;stroke-width:1.89999998000000000;stroke-linejoin:round;stroke-miterlimit:4;stroke-opacity:1;stroke-dasharray:none"
       id="path2987"
       sodipodi:cx="345"
       sodipodi:cy="507.36218"
       sodipodi:rx="45"
       sodipodi:ry="45"
       d="m 390,507.36218 a 45,45 0 1 1 -90,0 45,45 0 1 1 90,0 z"
       transform="matrix(1.4274833,0,0,1.4274833,-127.83888,-236.53171)"
       inkscape:export-filename="I:\Apache24\htdocs\mylaserisbroken\path2997.png"
       inkscape:export-xdpi="72"
       inkscape:export-ydpi="72" />
    <path
       sodipodi:type="arc"
       style="fill:none;stroke:#000000;stroke-width:1.89999998000000000;stroke-linejoin:round;stroke-miterlimit:4;stroke-opacity:1;stroke-dasharray:none"
       id="path2989"
       sodipodi:cx="350"
       sodipodi:cy="542.36218"
       sodipodi:rx="5"
       sodipodi:ry="5"
       d="m 355,542.36218 a 5,5 0 1 1 -10,0 5,5 0 1 1 10,0 z"
       transform="matrix(1.4274833,0,0,1.4274833,-128.09379,-237.80625)"
       inkscape:export-filename="I:\Apache24\htdocs\mylaserisbroken\path2997.png"
       inkscape:export-xdpi="72"
       inkscape:export-ydpi="72" />
    <path
       sodipodi:type="arc"
       style="fill:none;stroke:#000000;stroke-width:1.89999998000000000;stroke-linejoin:round;stroke-miterlimit:4;stroke-opacity:1;stroke-dasharray:none"
       id="path2991"
       sodipodi:cx="375"
       sodipodi:cy="522.36218"
       sodipodi:rx="10"
       sodipodi:ry="10"
       d="m 385,522.36218 a 10,10 0 1 1 -20,0 10,10 0 1 1 20,0 z"
       transform="matrix(1.4274833,0,0,1.4274833,-139.30973,-226.59031)"
       inkscape:export-filename="I:\Apache24\htdocs\mylaserisbroken\path2997.png"
       inkscape:export-xdpi="72"
       inkscape:export-ydpi="72" />
    <path
       sodipodi:type="arc"
       style="fill:none;stroke:#000000;stroke-width:1.89999998000000000;stroke-linejoin:round;stroke-miterlimit:4;stroke-opacity:1;stroke-dasharray:none"
       id="path2993"
       sodipodi:cx="332.5"
       sodipodi:cy="534.86218"
       sodipodi:rx="2.5"
       sodipodi:ry="2.5"
       d="m 335,534.86218 a 2.5,2.5 0 1 1 -5,0 2.5,2.5 0 1 1 5,0 z"
       transform="matrix(1.4274833,0,0,1.4274833,-120.95637,-223.78633)"
       inkscape:export-filename="I:\Apache24\htdocs\mylaserisbroken\path2997.png"
       inkscape:export-xdpi="72"
       inkscape:export-ydpi="72" />
    <path
       sodipodi:type="arc"
       style="fill:none;stroke:#000000;stroke-width:1.89999998000000000;stroke-linejoin:round;stroke-miterlimit:4;stroke-opacity:1;stroke-dasharray:none"
       id="path2995"
       sodipodi:cx="382.5"
       sodipodi:cy="509.86218"
       sodipodi:rx="2.5"
       sodipodi:ry="2.5"
       d="m 385,509.86218 a 2.5,2.5 0 1 1 -5,0 2.5,2.5 0 1 1 5,0 z"
       transform="matrix(1.4274833,0,0,1.4274833,-129.87814,-225.06086)"
       inkscape:export-filename="I:\Apache24\htdocs\mylaserisbroken\path2997.png"
       inkscape:export-xdpi="72"
       inkscape:export-ydpi="72" />
    <path
       sodipodi:type="arc"
       style="fill:none;stroke:#000000;stroke-width:1.89999998000000000;stroke-linejoin:round;stroke-miterlimit:4;stroke-opacity:1;stroke-dasharray:none"
       id="path2997"
       sodipodi:cx="365"
       sodipodi:cy="527.36218"
       sodipodi:rx="5"
       sodipodi:ry="5"
       d="m 370,527.36218 a 5,5 0 1 1 -10,0 5,5 0 1 1 10,0 z"
       transform="matrix(1.4274833,0,0,1.4274833,-119.93674,-228.37467)"
       inkscape:export-xdpi="72"
       inkscape:export-ydpi="72" />
  </g>
</svg>
